<?xml version="1.0" encoding="UTF-8"?>
<svg width="160px" height="30px" viewBox="0 0 160 30" version="1.1" xmlns="http://www.w3.org/2000/svg" xmlns:xlink="http://www.w3.org/1999/xlink">
    <!-- Generator: Sketch 42 (36781) - http://www.bohemiancoding.com/sketch -->
    <title>snappybill-logo</title>
    <desc>Created with Sketch.</desc>
    <defs></defs>
    <g id="Page-1" stroke="none" stroke-width="1" fill="none" fill-rule="evenodd" opacity="0.900000036">
        <g id="Artboard" transform="translate(-39.000000, -36.000000)">
            <g id="snappybill-logo" transform="translate(39.000000, 30.000000)">
                <path d="M52.6191406,25.3476562 C52.6191406,26.8711014 52.0683649,28.0664019 50.9667969,28.9335938 C49.8652289,29.8007856 48.3457128,30.234375 46.4082031,30.234375 C44.4706934,30.234375 42.8847718,29.9335968 41.6503906,29.3320312 L41.6503906,26.6835938 C42.4316445,27.0507831 43.2617144,27.3398427 44.140625,27.5507812 C45.0195356,27.7617198 45.8378868,27.8671875 46.5957031,27.8671875 C47.7050837,27.8671875 48.5234349,27.6562521 49.0507812,27.234375 C49.5781276,26.8124979 49.8417969,26.2460973 49.8417969,25.5351562 C49.8417969,24.894528 49.5996118,24.3515647 49.1152344,23.90625 C48.630857,23.4609353 47.630867,22.9335968 46.1152344,22.3242188 C44.5527266,21.6914031 43.4511751,20.9687541 42.8105469,20.15625 C42.1699187,19.3437459 41.8496094,18.3671932 41.8496094,17.2265625 C41.8496094,15.7968679 42.3574168,14.6718791 43.3730469,13.8515625 C44.388677,13.0312459 45.7519446,12.6210938 47.4628906,12.6210938 C49.1035238,12.6210938 50.73632,12.9804652 52.3613281,13.6992188 L51.4707031,15.984375 C49.947258,15.3437468 48.5878966,15.0234375 47.3925781,15.0234375 C46.4863236,15.0234375 45.7988305,15.2207012 45.3300781,15.6152344 C44.8613258,16.0097676 44.6269531,16.5312468 44.6269531,17.1796875 C44.6269531,17.6250022 44.7207022,18.0058578 44.9082031,18.3222656 C45.0957041,18.6386735 45.4042947,18.9374986 45.8339844,19.21875 C46.263674,19.5000014 47.0371038,19.8710914 48.1542969,20.3320312 C49.4121157,20.8554714 50.3339814,21.3437477 50.9199219,21.796875 C51.5058623,22.2500023 51.9355455,22.7617159 52.2089844,23.3320312 C52.4824232,23.9023466 52.6191406,24.5742149 52.6191406,25.3476562 Z M67.0449219,30 L64.2792969,30 L64.2792969,22.03125 C64.2792969,21.031245 64.078127,20.2851587 63.6757813,19.7929688 C63.2734355,19.3007788 62.63477,19.0546875 61.7597656,19.0546875 C60.5956973,19.0546875 59.7441433,19.3984341 59.2050781,20.0859375 C58.6660129,20.7734409 58.3964844,21.9257732 58.3964844,23.5429688 L58.3964844,30 L55.6425781,30 L55.6425781,17.0390625 L57.7988281,17.0390625 L58.1855469,18.7382812 L58.3261719,18.7382812 C58.7167988,18.1210907 59.2714808,17.6445329 59.9902344,17.3085938 C60.708988,16.9726546 61.505855,16.8046875 62.3808594,16.8046875 C65.4902499,16.8046875 67.0449219,18.3867029 67.0449219,21.5507812 L67.0449219,30 Z M78.9863281,30 L78.4355469,28.1953125 L78.3417969,28.1953125 C77.7167937,28.9843789 77.0878938,29.5214829 76.4550781,29.8066406 C75.8222625,30.0917983 75.0097706,30.234375 74.0175781,30.234375 C72.7441343,30.234375 71.7500036,29.8906284 71.0351562,29.203125 C70.3203089,28.5156216 69.9628906,27.542975 69.9628906,26.2851562 C69.9628906,24.9492121 70.4589794,23.9414096 71.4511719,23.2617188 C72.4433643,22.5820279 73.955068,22.2109378 75.9863281,22.1484375 L78.2246094,22.078125 L78.2246094,21.3867188 C78.2246094,20.5585896 78.0312519,19.9394552 77.6445312,19.5292969 C77.2578106,19.1191386 76.6582072,18.9140625 75.8457031,18.9140625 C75.1816373,18.9140625 74.5449249,19.0117178 73.9355469,19.2070312 C73.3261688,19.4023447 72.7402372,19.6328112 72.1777344,19.8984375 L71.2871094,17.9296875 C71.9902379,17.5624982 72.7597614,17.2832041 73.5957031,17.0917969 C74.4316448,16.9003897 75.2206994,16.8046875 75.9628906,16.8046875 C77.6113364,16.8046875 78.8554646,17.1640589 79.6953125,17.8828125 C80.5351604,18.6015661 80.9550781,19.7304611 80.9550781,21.2695312 L80.9550781,30 L78.9863281,30 Z M74.8847656,28.125 C75.8847706,28.125 76.687497,27.8457059 77.2929688,27.2871094 C77.8984405,26.7285128 78.2011719,25.9453175 78.2011719,24.9375 L78.2011719,23.8125 L76.5371094,23.8828125 C75.2402279,23.9296877 74.2968779,24.1464824 73.7070312,24.5332031 C73.1171846,24.9199238 72.8222656,25.5117148 72.8222656,26.3085938 C72.8222656,26.8867216 72.9941389,27.3339828 73.3378906,27.6503906 C73.6816423,27.9667985 74.1972622,28.125 74.8847656,28.125 Z M91.3730469,30.234375 C89.7324137,30.234375 88.4589889,29.6445371 87.5527344,28.4648438 L87.3886719,28.4648438 C87.4980474,29.5585992 87.5527344,30.2226551 87.5527344,30.4570312 L87.5527344,35.765625 L84.7988281,35.765625 L84.7988281,17.0390625 L87.0253906,17.0390625 C87.0878909,17.2812512 87.2167959,17.8593704 87.4121094,18.7734375 L87.5527344,18.7734375 C88.4121137,17.4609309 89.7011633,16.8046875 91.4199219,16.8046875 C93.0371175,16.8046875 94.2968705,17.3906191 95.1992188,18.5625 C96.101567,19.7343809 96.5527344,21.3788957 96.5527344,23.4960938 C96.5527344,25.6132918 96.0937546,27.2656191 95.1757812,28.453125 C94.2578079,29.6406309 92.9902425,30.234375 91.3730469,30.234375 Z M90.7050781,19.0546875 C89.6113227,19.0546875 88.8125025,19.3749968 88.3085938,20.015625 C87.804685,20.6562532 87.5527344,21.6796805 87.5527344,23.0859375 L87.5527344,23.4960938 C87.5527344,25.0742266 87.8027319,26.2167933 88.3027344,26.9238281 C88.8027369,27.6308629 89.619135,27.984375 90.7519531,27.984375 C91.7050829,27.984375 92.4394505,27.5937539 92.9550781,26.8125 C93.4707057,26.0312461 93.7285156,24.917976 93.7285156,23.4726562 C93.7285156,22.019524 93.4726588,20.9199256 92.9609375,20.1738281 C92.4492162,19.4277306 91.6972706,19.0546875 90.7050781,19.0546875 Z M106.326172,30.234375 C104.685539,30.234375 103.412114,29.6445371 102.505859,28.4648438 L102.341797,28.4648438 C102.451172,29.5585992 102.505859,30.2226551 102.505859,30.4570312 L102.505859,35.765625 L99.7519531,35.765625 L99.7519531,17.0390625 L101.978516,17.0390625 C102.041016,17.2812512 102.169921,17.8593704 102.365234,18.7734375 L102.505859,18.7734375 C103.365239,17.4609309 104.654288,16.8046875 106.373047,16.8046875 C107.990242,16.8046875 109.249995,17.3906191 110.152344,18.5625 C111.054692,19.7343809 111.505859,21.3788957 111.505859,23.4960938 C111.505859,25.6132918 111.04688,27.2656191 110.128906,28.453125 C109.210933,29.6406309 107.943367,30.234375 106.326172,30.234375 Z M105.658203,19.0546875 C104.564448,19.0546875 103.765628,19.3749968 103.261719,20.015625 C102.75781,20.6562532 102.505859,21.6796805 102.505859,23.0859375 L102.505859,23.4960938 C102.505859,25.0742266 102.755857,26.2167933 103.255859,26.9238281 C103.755862,27.6308629 104.57226,27.984375 105.705078,27.984375 C106.658208,27.984375 107.392576,27.5937539 107.908203,26.8125 C108.423831,26.0312461 108.681641,24.917976 108.681641,23.4726562 C108.681641,22.019524 108.425784,20.9199256 107.914063,20.1738281 C107.402341,19.4277306 106.650396,19.0546875 105.658203,19.0546875 Z M112.736328,17.0390625 L115.736328,17.0390625 L118.373047,24.3867188 C118.771486,25.433599 119.037109,26.4179641 119.169922,27.3398438 L119.263672,27.3398438 C119.333985,26.9101541 119.46289,26.3886749 119.650391,25.7753906 C119.837892,25.1621063 120.830069,22.2500261 122.626953,17.0390625 L125.603516,17.0390625 L120.060547,31.7226562 C119.052729,34.4179822 117.373059,35.765625 115.021484,35.765625 C114.412106,35.765625 113.818362,35.6992194 113.240234,35.5664062 L113.240234,33.3867188 C113.654299,33.4804692 114.12695,33.5273438 114.658203,33.5273438 C115.986335,33.5273438 116.919919,32.7578202 117.458984,31.21875 L117.939453,30 L112.736328,17.0390625 Z M127.865234,12.8671875 L132.951172,12.8671875 C135.310559,12.8671875 137.01562,13.2109341 138.066406,13.8984375 C139.117193,14.5859409 139.642578,15.6718676 139.642578,17.15625 C139.642578,18.156255 139.384768,18.9882779 138.869141,19.6523438 C138.353513,20.3164096 137.611333,20.7343741 136.642578,20.90625 L136.642578,21.0234375 C137.845709,21.2500011 138.730466,21.6972623 139.296875,22.3652344 C139.863284,23.0332065 140.146484,23.9374943 140.146484,25.078125 C140.146484,26.6171952 139.60938,27.8222613 138.535156,28.6933594 C137.460932,29.5644575 135.966806,30 134.052734,30 L127.865234,30 L127.865234,12.8671875 Z M130.666016,19.9453125 L133.361328,19.9453125 C134.533209,19.9453125 135.388669,19.7597675 135.927734,19.3886719 C136.4668,19.0175763 136.736328,18.3867232 136.736328,17.4960938 C136.736328,16.6914022 136.445315,16.1093768 135.863281,15.75 C135.281247,15.3906232 134.357428,15.2109375 133.091797,15.2109375 L130.666016,15.2109375 L130.666016,19.9453125 Z M130.666016,22.21875 L130.666016,27.6445312 L133.642578,27.6445312 C134.814459,27.6445312 135.699216,27.4199241 136.296875,26.9707031 C136.894534,26.5214821 137.193359,25.8125048 137.193359,24.84375 C137.193359,23.9531205 136.888675,23.2929709 136.279297,22.8632812 C135.669919,22.4335916 134.744147,22.21875 133.501953,22.21875 L130.666016,22.21875 Z M146.169922,30 L143.416016,30 L143.416016,17.0390625 L146.169922,17.0390625 L146.169922,30 Z M143.251953,13.6054688 C143.251953,13.1132788 143.386717,12.7343763 143.65625,12.46875 C143.925783,12.2031237 144.310544,12.0703125 144.810547,12.0703125 C145.294924,12.0703125 145.671874,12.2031237 145.941406,12.46875 C146.210939,12.7343763 146.345703,13.1132788 146.345703,13.6054688 C146.345703,14.0742211 146.210939,14.443358 145.941406,14.7128906 C145.671874,14.9824232 145.294924,15.1171875 144.810547,15.1171875 C144.310544,15.1171875 143.925783,14.9824232 143.65625,14.7128906 C143.386717,14.443358 143.251953,14.0742211 143.251953,13.6054688 Z M152.861328,30 L150.107422,30 L150.107422,11.765625 L152.861328,11.765625 L152.861328,30 Z M159.552734,30 L156.798828,30 L156.798828,11.765625 L159.552734,11.765625 L159.552734,30 Z" id="SnappyBill" fill="#3C3C3E"></path>
                <g id="icon" fill-rule="nonzero">
                    <path d="M23.1952934,8.43474809 C20.7772372,6.85464214 17.9507705,6 15,6 C6.71572875,6 0,12.7157288 0,21 C0,29.2842712 6.71572875,36 15,36 C23.2842712,36 30,29.2842712 30,21 C30,20.1459505 29.9285232,19.3005192 29.7873679,18.4699441 C29.6948345,17.9254664 29.178435,17.5590931 28.6339572,17.6516264 C28.0894794,17.7441598 27.7231061,18.2605594 27.8156395,18.8050371 C27.9379999,19.5250208 28,20.2583604 28,21 C28,28.1797017 22.1797017,34 15,34 C7.82029825,34 2,28.1797017 2,21 C2,13.8202983 7.82029825,8 15,8 C17.5592049,8 20.0060571,8.73985765 22.1012462,10.1089825 C22.5635733,10.4110953 23.1832742,10.2812159 23.485387,9.81888888 C23.7874998,9.35656182 23.6576205,8.73686089 23.1952934,8.43474809 Z" id="Oval" fill="#3F3F41"></path>
                    <g id="Group" transform="translate(20.435029, 13.727922) rotate(-45.000000) translate(-20.435029, -13.727922) translate(7.435029, 7.727922)" fill="#3C3C3E">
                        <path d="M2.1862915,9 L2.1862915,1.64213562 C2.1862915,1.08985087 1.73857625,0.642135624 1.1862915,0.642135624 C0.634006751,0.642135624 0.186291501,1.08985087 0.186291501,1.64213562 L0.186291501,10.127417 C0.186291501,10.6797017 0.634006751,11.127417 1.1862915,11.127417 C1.36384339,11.127417 1.53058767,11.0811441 1.67512275,11 L25,11 C25.5522847,11 26,10.5522847 26,10 C26,9.44771525 25.5522847,9 25,9 L2.1862915,9 Z" id="Combined-Shape"></path>
                    </g>
                </g>
            </g>
        </g>
    </g>
</svg>